<?xml version="1.0" encoding="UTF-8" standalone="no"?>
<!-- Created with Inkscape (http://www.inkscape.org/) -->

<svg
   width="153.02107mm"
   height="153.02107mm"
   viewBox="0 0 153.02107 153.02107"
   version="1.1"
   id="svg5"
   xml:space="preserve"
   inkscape:version="1.2 (dc2aedaf03, 2022-05-15)"
   sodipodi:docname="sadamlab_icon.svg"
   xmlns:inkscape="http://www.inkscape.org/namespaces/inkscape"
   xmlns:sodipodi="http://sodipodi.sourceforge.net/DTD/sodipodi-0.dtd"
   xmlns="http://www.w3.org/2000/svg"
   xmlns:svg="http://www.w3.org/2000/svg"><sodipodi:namedview
     id="namedview7"
     pagecolor="#ffffff"
     bordercolor="#111111"
     borderopacity="1"
     inkscape:showpageshadow="0"
     inkscape:pageopacity="0"
     inkscape:pagecheckerboard="1"
     inkscape:deskcolor="#d1d1d1"
     inkscape:document-units="mm"
     showgrid="false"
     inkscape:zoom="1.4368528"
     inkscape:cx="218.53317"
     inkscape:cy="289.86964"
     inkscape:window-width="1920"
     inkscape:window-height="1017"
     inkscape:window-x="-8"
     inkscape:window-y="-8"
     inkscape:window-maximized="1"
     inkscape:current-layer="layer1" /><defs
     id="defs2" /><g
     inkscape:label="Layer 1"
     inkscape:groupmode="layer"
     id="layer1"
     transform="translate(-35.125294,-71.641685)"><path
       id="rect7851"
       style="fill:#d14552;fill-opacity:1;stroke:none;stroke-width:1.67568;stroke-linejoin:round;stroke-opacity:1;paint-order:markers stroke fill"
       d="M 48.817748,97.323247 116.94333,223.63613 158.43376,201.25869 90.308179,74.945802 Z m 4.405072,1.34953 35.793236,-19.30472 12.450094,23.083953 -35.793235,19.30472 z m 14.63701,27.138753 35.79324,-19.30472 12.45009,23.08394 -35.793237,19.30472 z m 14.637008,27.13874 35.793232,-19.30472 12.44985,23.0835 -35.793231,19.30472 z m 14.637012,27.13875 35.79323,-19.30472 12.44985,23.08349 -35.79323,19.30472 z" /><path
       id="path7885"
       style="fill:#d14552;fill-opacity:1;stroke:none;stroke-width:1.67568;stroke-linejoin:round;stroke-opacity:1;paint-order:markers stroke fill"
       d="M 110.77597 73.215232 L 104.44148 91.76087 L 106.54832 95.60508 L 112.77895 77.364333 L 151.26291 90.509267 L 142.78539 115.32894 L 111.50306 104.64329 L 114.78658 110.63362 L 141.29659 119.68836 L 133.02423 143.90549 L 135.13159 147.7497 L 155.38565 88.452545 L 110.77597 73.215232 z M 78.644085 167.28598 L 64.387591 209.02451 L 108.99727 224.26183 L 109.3342 223.27481 L 94.751629 196.67178 L 74.40145 189.72027 L 80.750933 171.13019 L 78.644085 167.28598 z " /></g></svg>
