<?xml version="1.0" encoding="UTF-8"?>
<svg id="_레이어_1" data-name="레이어_1" xmlns="http://www.w3.org/2000/svg" version="1.1" viewBox="0 0 1080 1080">
  <!-- Generator: Adobe Illustrator 29.5.1, SVG Export Plug-In . SVG Version: 2.1.0 Build 141)  -->
  <defs>
    <style>
      .st0, .st1 {
        fill: #fff;
      }

      .st1, .st2 {
        stroke: #333;
        stroke-miterlimit: 10;
      }

      .st3 {
        fill: #333;
      }

      .st2 {
        fill: none;
      }
    </style>
  </defs>
  <g>
    <path class="st3" d="M512.7,208.2s34.8-46,115.7-46,107.9,74.1,107.9,115.7v258.1s-18.2,124.6-82.1,124.6v-328.8l-141.4-123.5Z"/>
    <path class="st3" d="M570.5,200.2v528.7s119.9-30.5,119.9-135.8v-321.6l-119.9-71.3Z"/>
    <path class="st3" d="M736.2,531.8v119.6s-4.6,47.2-31.3,47.2v-125.5l31.3-41.3Z"/>
    <path class="st1" d="M489.3,161.8c21.9,60.6,86,93,86,93,0,0,28.5-65.9,6.6-126.5-21.9-60.6-86-93-86-93,0,0-28.5,65.9-6.6,126.5Z"/>
    <path class="st1" d="M661.3,161.8c-21.9,60.6-86,93-86,93,0,0-28.5-65.9-6.6-126.5,21.9-60.6,86-93,86-93,0,0,28.5,65.9,6.6,126.5Z"/>
    <line class="st2" x1="590.1" y1="219.3" x2="620.4" y2="134.6"/>
  </g>
  <g>
    <path class="st1" d="M586.3,638.8c-70.9-12.8-175.3,19-175.3,19l14.9,24,181.5-6.1-21-36.9Z"/>
    <rect class="st1" x="492.3" y="624" width="52.4" height="70.1" transform="translate(-109.6 103.5) rotate(-10.3)"/>
    <path class="st1" d="M753.8,864.9s-71.9-159.8-82.6-166.3-119.5-16.8-178.9-11.3-135.5,29.5-144.4,36.4-64.5,231-64.5,231c0,0,103,36.3,237.7,30.5s243-53.7,243-53.7l-10.3-66.5Z"/>
    <path class="st1" d="M377.3,712.7s69.3-17.1,123.4-21.9,138.7,3.1,138.7,3.1c0,0-32.9-49.1-50.9-54.6s-96.3,36.7-96.3,36.7c0,0-70.4-28.5-81.3-18.2s-33.6,54.9-33.6,54.9Z"/>
    <polyline class="st2" points="645.9 743.7 612.9 826.6 635.1 970.5"/>
    <polyline class="st2" points="356.8 743.7 391.1 803.9 381.6 977.3"/>
    <line class="st2" x1="356.8" y1="794.3" x2="381.5" y2="819.6"/>
    <path class="st3" d="M535.9,681.8c-1.4,0-2.6,1.2-2.6,2.6v210.6c0,1.4,1.2,2.6,2.6,2.6s2.6-1.2,2.6-2.6v-210.6c0-1.4-1.2-2.6-2.6-2.6Z"/>
    <path class="st3" d="M539.8,886.6h-8.9s-5.3,6.1-5.3,19.5v19.9h3.4l.7-14s1.2,8.2,2.1,14h14.5v-19.7c0-7.3-4.1-19.7-6.5-19.7Z"/>
    <ellipse class="st3" cx="535.9" cy="888.9" rx="9.9" ry="5.8"/>
    <path class="st3" d="M459.5,689.9c-1.4,0-2.6,1.2-2.6,2.6v210.6c0,1.4,1.2,2.6,2.6,2.6s2.6-1.2,2.6-2.6v-210.6c0-1.4-1.2-2.6-2.6-2.6Z"/>
    <path class="st3" d="M463.4,894.7h-8.9s-5.3,6.1-5.3,19.5v19.9h3.4l.7-14s1.2,8.2,2.1,14h14.5v-19.7c0-7.3-4.1-19.7-6.5-19.7Z"/>
    <ellipse class="st3" cx="459.5" cy="897" rx="9.9" ry="5.8"/>
  </g>
  <g>
    <path class="st3" d="M713.4,417c0,130.9-103.6,163.6-234.6,163.6s-239.6-32.7-239.6-163.6,106.1-237.1,237.1-237.1,237.1,106.1,237.1,237.1Z"/>
    <circle class="st1" cx="648.5" cy="504.2" r="56.4"/>
    <circle class="st1" cx="476.4" cy="477.2" r="176.9"/>
    <path class="st3" d="M375.9,274.8s-68.5,165.1,62.9,249.9l-18-48.3s17.8,33.1,46.5,41.5c0,0,31-13.5,71.9-13.5,0,0-6.9-159.5-71.9-210-65-50.5-91.4-19.7-91.4-19.7Z"/>
    <path class="st3" d="M428.2,336s128.6,142.1,203.8,161.1l40.4-11.2s38.2-244.8-230.2-244.8l-14,94.9Z"/>
    <path class="st3" d="M406.3,345s-64,163.8-88.2,211.3c0,0-46.6-54.6-38.7-122.6,7.9-67.9,93.8-196,126.9-88.7Z"/>
    <path class="st3" d="M612.9,344.4v319.4s66.1-90,66.1-161v-153.7l-66.1-4.8Z"/>
    <path class="st3" d="M679,456.9c-.2,3,0,112.7,0,112.7,0,0-3,24.5-15.6,37.1v-101.1l15.6-48.6Z"/>
    <path class="st3" d="M251.3,385.9v289.3s-3.2,100.2,64.2,100.2v-341.1l-64.2-48.4Z"/>
    <path class="st3" d="M331.3,396.4v358.8s-36.2-28.6-36.2-86.7v-254.3l36.2-17.7Z"/>
    <path class="st3" d="M257.4,396.4v358.8s-18.1-28.6-18.1-86.7v-254.3l18.1-17.7Z"/>
    <ellipse class="st3" cx="408.4" cy="551.9" rx="32.4" ry="44.6" transform="translate(-153.8 157.8) rotate(-18.5)"/>
    <path class="st3" d="M431.4,519.7s-17.2-27.8-57.7-11.8c-40.5,15.9-28.8,75.6-28.8,75.6l-29.9,3.7s6-73.4,52.8-87.6c46.8-14.2,63.7,20.1,63.7,20.1Z"/>
    <path class="st3" d="M510.2,550.2s7.6-22.8,38.6-29.9,64,11.6,64,11.6l17.6-17.6s-53.5-15.9-83.8-4.4c-30.3,11.5-36.4,40.3-36.4,40.3Z"/>
    <ellipse class="st0" cx="420.8" cy="551.9" rx="11.4" ry="15.7" transform="translate(-153.2 161.8) rotate(-18.5)"/>
    <path class="st2" d="M466.6,600.2s13,8.8,29.1,5.5c16-3.3,22.3-14.2,22.3-14.2"/>
    <line class="st2" x1="405.3" y1="603.3" x2="399.5" y2="618.5"/>
    <line class="st2" x1="410.9" y1="604.7" x2="409.1" y2="615.6"/>
    <line class="st2" x1="565.4" y1="566.9" x2="569.2" y2="583.1"/>
    <line class="st2" x1="570.4" y1="566.9" x2="574.5" y2="576.5"/>
  </g>
  <g>
    <path class="st3" d="M765.7,681.9s37.2,9.2,77.7,29.4,72.8,45.5,72.8,45.5l-43.5,38.8-110.3-28.5,3.3-85.2Z"/>
    <path class="st1" d="M898.4,654.1c11.7-18.5,45.6-72.5,56.6-93,13.4-24.9-1.4-36.1-1.4-36.1l-79.1,112.5c-1.4,2-4.1,2.7-6.3,1.6l-1.5-.7c11.6-25.8,29.4-65.9,35.8-83.2,9.9-26.5-6.4-35.6-6.4-35.6l-54.3,106.4-63.5,127.2,86.4,43,80-119-46.4-23.1Z"/>
    <path class="st1" d="M944.8,677.2l-11.9,44.9s-2.3,10.9-9.9,9.4l-55.7-27.7s13.2-18.2,25.9-11.9"/>
    <path class="st0" d="M814,673s6.7-.6,10.3-6.7l-35.7,71.7-1.5-2s4.1-10.9,4.8-14.9,22.2-48.1,22.2-48.1Z"/>
    <path class="st1" d="M821.2,667.5c-7.3,14.7-17.2-4.1-17.2-4.1,0,0-8-15.2-16.8-25.2-8.8-10.1-30.4-2.4-30.4-2.4l32.9,83.6s2.5,6.2-3.7,18.7"/>
    <path class="st3" d="M765.7,681.9s30.9,30.2,75.7,52.5,74.7,22.4,74.7,22.4l-155.4,262.8s-82.9,17.4-102.3,7.8c-17.9-8.9-29.4-95.8-29.4-95.8l136.6-249.7Z"/>
  </g>
  <path class="st3" d="M597.5,685.7l55.8,4.2-214.2,301.1s-30-1.1-60-7.6l218.4-297.7Z"/>
</svg>