<?xml version="1.0" encoding="UTF-8" standalone="no"?>
<!-- Created with Inkscape (http://www.inkscape.org/) -->

<svg
   width="165.67213mm"
   height="165.67213mm"
   viewBox="0 0 165.67213 165.67213"
   version="1.1"
   id="svg5"
   inkscape:version="1.2 (dc2aedaf03, 2022-05-15)"
   sodipodi:docname="arcaspai_icon.svg"
   inkscape:export-filename="arc_logo.png"
   inkscape:export-xdpi="150"
   inkscape:export-ydpi="150"
   xml:space="preserve"
   xmlns:inkscape="http://www.inkscape.org/namespaces/inkscape"
   xmlns:sodipodi="http://sodipodi.sourceforge.net/DTD/sodipodi-0.dtd"
   xmlns="http://www.w3.org/2000/svg"
   xmlns:svg="http://www.w3.org/2000/svg"><sodipodi:namedview
     id="namedview7"
     pagecolor="#ffffff"
     bordercolor="#111111"
     borderopacity="1"
     inkscape:showpageshadow="0"
     inkscape:pageopacity="0"
     inkscape:pagecheckerboard="1"
     inkscape:deskcolor="#d1d1d1"
     inkscape:document-units="mm"
     showgrid="false"
     inkscape:zoom="1.3271318"
     inkscape:cx="313.0812"
     inkscape:cy="313.0812"
     inkscape:window-width="1920"
     inkscape:window-height="1017"
     inkscape:window-x="-8"
     inkscape:window-y="-8"
     inkscape:window-maximized="1"
     inkscape:current-layer="layer1" /><defs
     id="defs2" /><g
     inkscape:label="Layer 1"
     inkscape:groupmode="layer"
     id="layer1"
     transform="translate(-25.322014,-33.66861)"><path
       id="path184"
       style="color:#000000;fill:#3e94e1;fill-opacity:1;stroke-linecap:round;stroke-linejoin:round"
       d="M 108.1583 33.515648 C 62.438956 33.515648 25.322015 70.632067 25.322014 116.35142 C 25.322014 117.52553 25.352585 118.6923 25.401079 119.85456 C 25.411846 120.11276 25.417921 120.37213 25.431051 120.62971 C 25.448274 120.96741 25.473865 121.30284 25.49513 121.63947 C 25.518445 122.00872 25.53778 122.37897 25.565927 122.74689 C 25.601311 123.20921 25.646474 123.66907 25.689433 124.12924 C 25.71006 124.36927 25.729637 124.60963 25.754029 124.84857 C 25.786194 125.16353 25.825825 125.47621 25.861516 125.79012 C 25.903573 126.16001 25.943784 126.53053 25.99019 126.8991 C 25.992675 126.91884 25.994382 126.93879 25.996908 126.95852 C 26.041304 127.30509 26.093962 127.6489 26.142636 127.99412 C 26.190162 128.34207 26.236638 128.69034 26.289914 129.03643 C 26.325383 129.26675 26.366752 129.49508 26.404118 129.72476 C 26.441536 129.95476 26.481701 130.18386 26.519874 130.41361 C 26.557795 130.6418 26.593711 130.87064 26.634595 131.09781 C 26.680682 131.35376 26.73292 131.60749 26.781356 131.86262 C 26.861162 132.28317 26.939122 132.7042 27.025269 133.12249 C 27.077537 133.37616 27.135532 133.62776 27.190117 133.88058 C 27.232537 134.07706 27.277008 134.27279 27.319825 134.46918 C 27.371416 134.70575 27.42163 134.94285 27.476404 135.17818 C 27.595126 135.688 27.72244 136.19439 27.850542 136.70056 C 27.890113 136.85943 27.927312 137.01924 27.968364 137.17754 C 28.019218 137.37354 28.074759 137.56759 28.127011 137.76303 C 28.25256 138.23283 28.378429 138.70267 28.512 139.16915 C 28.560057 139.33691 28.61174 139.50308 28.660828 139.67041 C 28.776634 140.06515 28.895692 140.45854 29.016362 140.85121 C 29.048213 140.95486 29.077952 141.05943 29.110413 141.16282 C 29.143992 141.26973 29.180282 141.37546 29.214283 141.48218 C 29.388228 142.02838 29.565257 142.5729 29.750167 143.11413 C 29.787647 143.22378 29.82748 143.3323 29.865406 143.44175 C 30.006294 143.84835 30.152045 144.25268 30.298454 144.65667 C 30.342539 144.77831 30.383876 144.90125 30.428679 145.02254 C 30.476956 145.15318 30.528074 145.28237 30.57699 145.41269 C 30.771158 145.93021 30.968129 146.4463 31.172303 146.95885 C 31.202421 147.03443 31.233953 147.10921 31.264287 147.18468 C 31.48441 147.73254 31.708789 148.27823 31.940215 148.82024 C 31.987665 148.93133 32.037504 149.04116 32.085425 149.152 C 32.280737 149.60374 32.4801 150.05348 32.682805 150.50127 C 32.710835 150.5632 32.73726 150.626 32.765487 150.68782 C 32.805731 150.77593 32.847933 150.86291 32.888477 150.95086 C 33.134526 151.48474 33.384398 152.01635 33.641403 152.54404 C 33.6677 152.59802 33.69509 152.65136 33.721501 152.70527 C 33.990332 153.2542 34.26417 153.80034 34.544707 154.34238 C 34.580259 154.41105 34.616972 154.47898 34.652711 154.54754 C 34.909271 155.0397 35.17073 155.52875 35.436642 156.01515 C 35.461951 156.06145 35.486163 156.10843 35.511573 156.15467 C 35.524804 156.17874 35.538627 156.20245 35.551881 156.2265 C 35.865955 156.79674 36.186045 157.36315 36.513062 157.92511 C 36.517493 157.93272 36.522065 157.94024 36.526498 157.94785 C 36.859479 158.51963 37.199385 159.08707 37.545557 159.65007 C 37.556381 159.66767 37.567277 159.68519 37.578113 159.70278 C 37.709118 159.91542 37.845291 160.12444 37.978089 160.33581 C 38.192928 160.67773 38.40588 161.02098 38.625595 161.35952 C 38.632648 161.37039 38.639724 161.38122 38.646782 161.39208 C 39.00732 161.94705 39.374132 162.49744 39.74749 163.04314 C 42.780921 167.47584 46.234036 171.59943 50.04867 175.3566 C 65.005729 190.08836 85.526205 199.18771 108.1583 199.18771 C 153.87766 199.18772 190.99407 162.07075 190.99407 116.35142 C 190.99407 93.71922 181.89534 73.198863 167.16349 58.241787 C 167.1599 58.238142 167.15622 58.234579 167.15263 58.230935 C 167.03739 58.113968 166.91874 58.00043 166.80278 57.884186 C 166.46041 57.54097 166.11798 57.197767 165.76977 56.860476 C 165.75394 56.845136 165.73859 56.829295 165.72275 56.813967 C 165.24745 56.354293 164.7666 55.900083 164.28046 55.451777 C 164.27929 55.450701 164.27801 55.449751 164.27684 55.448676 C 163.79103 55.000732 163.29997 54.558518 162.80354 54.122142 C 162.79493 54.114567 162.78633 54.106976 162.77771 54.099404 C 162.28423 53.665978 161.78542 53.238585 161.28167 52.816795 C 161.27164 52.808397 161.26174 52.799867 161.2517 52.791474 C 161.11414 52.676401 160.973 52.565595 160.83467 52.451443 C 160.46439 52.145857 160.09459 51.839694 159.71898 51.540387 C 157.61294 49.861982 155.42333 48.283883 153.15762 46.813544 C 152.89908 46.645757 152.63639 46.483853 152.37576 46.319001 C 151.49511 45.761345 150.60623 45.215105 149.70357 44.690159 C 149.18001 44.385682 148.65198 44.087858 148.12124 43.794607 C 148.0604 43.760992 148.00027 43.72627 147.93934 43.692804 C 147.40759 43.400747 146.87199 43.115616 146.33323 42.834976 C 146.2745 42.804381 146.21635 42.772932 146.15753 42.742475 C 145.97054 42.645642 145.78068 42.553534 145.59271 42.458254 C 144.57389 41.940502 143.54548 41.439038 142.50298 40.962738 C 142.45336 40.94007 142.4028 40.919141 142.35311 40.896593 C 141.85972 40.672701 141.36429 40.452921 140.86587 40.238235 C 140.16883 39.937902 139.46783 39.645446 138.76108 39.36387 C 138.22473 39.150175 137.68438 38.9439 137.14258 38.741169 C 137.04378 38.704199 136.94597 38.665116 136.84699 38.628514 C 136.34324 38.442227 135.836 38.263654 135.3277 38.086945 C 135.18529 38.037435 135.04414 37.985319 134.90137 37.936567 C 134.70657 37.870043 134.50963 37.808164 134.31381 37.743813 C 134.03154 37.651037 133.74998 37.556678 133.46683 37.465794 C 133.29173 37.40957 133.11792 37.350349 132.94232 37.295262 C 132.87169 37.273107 132.80016 37.25304 132.72941 37.231183 C 132.15178 37.051694 131.57242 36.876347 130.98947 36.709251 C 130.79334 36.653035 130.59521 36.60176 130.39829 36.547504 C 129.93313 36.417918 129.46833 36.287754 128.99992 36.166132 C 128.58854 36.059316 128.17437 35.959468 127.76021 35.859691 C 127.50044 35.796534 127.24215 35.729702 126.98144 35.669005 C 126.51602 35.560648 126.04733 35.460441 125.57894 35.35998 C 125.36888 35.314926 125.16017 35.265975 124.94952 35.22252 C 124.49857 35.129488 124.04455 35.045144 123.59095 34.959487 C 123.36095 34.916056 123.13225 34.869235 122.90159 34.827712 C 122.39271 34.736107 121.88091 34.653127 121.36886 34.570881 C 121.19888 34.543577 121.03018 34.512397 120.85985 34.486131 C 120.76529 34.47155 120.66986 34.459769 120.57511 34.445824 C 120.18873 34.388957 119.80165 34.334267 119.41395 34.281492 C 119.19679 34.251924 118.98102 34.218421 118.76334 34.190542 C 118.30234 34.131501 117.83864 34.081243 117.37531 34.029828 C 117.14183 34.003919 116.90967 33.97369 116.67561 33.94973 C 116.48478 33.930194 116.29262 33.915031 116.10097 33.898053 C 115.58637 33.848981 115.07158 33.799154 114.55429 33.759561 C 114.18621 33.731387 113.81576 33.712099 113.44635 33.688764 C 113.10973 33.667499 112.77429 33.641907 112.43659 33.624685 C 112.28462 33.616934 112.13168 33.613022 111.97926 33.607115 C 111.70007 33.596294 111.42102 33.584992 111.14158 33.575076 C 110.15093 33.539905 109.15748 33.515648 108.1583 33.515648 z M 108.1583 38.515859 C 108.83377 38.515859 109.50702 38.524625 110.17833 38.541698 C 110.39257 38.547146 110.60532 38.558812 110.81912 38.565985 C 110.87042 38.568055 110.92176 38.569847 110.97312 38.57167 C 111.37694 38.586007 111.78167 38.597722 112.1839 38.618179 C 112.18493 38.618231 112.18596 38.618126 112.187 38.618179 C 112.4172 38.629896 112.64566 38.647877 112.87533 38.661587 C 112.97496 38.668284 113.07479 38.674374 113.17453 38.680707 C 113.51066 38.702058 113.84779 38.719705 114.18274 38.745303 C 114.42217 38.763601 114.65964 38.788408 114.89846 38.808865 C 114.9353 38.812199 114.97216 38.815472 115.00905 38.818683 C 115.39819 38.852572 115.78791 38.884001 116.17538 38.923586 C 116.37938 38.944427 116.58164 38.970938 116.78517 38.99335 C 117.24151 39.0436 117.69809 39.092868 118.15201 39.150963 C 118.32537 39.173151 118.49731 39.199984 118.67032 39.22331 C 118.72092 39.230526 118.77156 39.237563 118.82225 39.244497 C 119.24789 39.302739 119.67422 39.359762 120.09762 39.424848 C 120.30599 39.456879 120.51251 39.494523 120.72033 39.528201 C 121.16465 39.600206 121.60923 39.67144 122.05099 39.750926 C 122.19138 39.776186 122.33048 39.805013 122.47061 39.831025 C 122.9775 39.925117 123.48394 40.020692 123.98731 40.124547 C 124.12501 40.152958 124.26122 40.185327 124.39865 40.214464 C 124.89202 40.319057 125.38469 40.425108 125.87453 40.538992 C 126.03086 40.575335 126.18573 40.615397 126.34169 40.65268 C 126.82061 40.767169 127.29925 40.882857 127.77468 41.006147 C 127.90026 41.038714 128.02451 41.074255 128.14985 41.107432 C 128.65404 41.240895 129.15714 41.376029 129.65725 41.519294 C 129.77628 41.553391 129.89399 41.590581 130.01278 41.62523 C 130.51259 41.771012 131.01169 41.918823 131.50726 42.074298 C 131.61696 42.108714 131.7254 42.145865 131.83489 42.180752 C 131.84971 42.18555 131.86449 42.190482 131.87933 42.195221 C 132.36323 42.349733 132.84604 42.506464 133.32576 42.670128 C 133.44771 42.711734 133.5684 42.756092 133.69008 42.798285 C 134.18141 42.968661 134.67193 43.141368 135.15872 43.321251 C 135.23729 43.350285 135.31488 43.381371 135.39333 43.410651 C 135.91749 43.606283 136.43989 43.805632 136.95861 44.012165 C 137.02226 44.037509 137.08521 44.064172 137.14878 44.089679 C 137.67872 44.302311 138.20651 44.518996 138.7306 44.742869 C 138.78838 44.767552 138.84548 44.793499 138.90319 44.818317 C 138.91352 44.822821 138.92385 44.827297 138.9342 44.831753 C 139.45138 45.054438 139.96647 45.281415 140.47778 45.514915 C 140.53817 45.542498 140.59781 45.571415 140.65813 45.599148 C 141.17783 45.8381 141.69498 46.081414 142.20842 46.331403 C 142.25825 46.355663 142.30748 46.380937 142.35725 46.4053 C 142.88225 46.662313 143.40478 46.92393 143.92304 47.192332 C 143.96132 47.212157 143.99901 47.232907 144.03725 47.252794 C 144.56838 47.528987 145.09624 47.809711 145.6201 48.097703 C 145.64754 48.113105 145.6747 48.129017 145.70226 48.144212 C 146.22182 48.430662 146.73828 48.722237 147.25049 49.020128 C 147.27813 49.036202 147.30555 49.052596 147.33317 49.068704 C 147.33956 49.072466 147.34589 49.076334 147.35229 49.080072 C 147.86525 49.379444 148.37497 49.684062 148.88036 49.994745 C 148.90786 50.011646 148.93506 50.028971 148.96253 50.045905 C 148.96647 50.048348 148.97047 50.050705 148.97441 50.05314 C 154.33205 53.357206 159.25853 57.292107 163.65 61.755268 C 177.46938 75.800219 185.99438 95.07083 185.99438 116.35142 C 185.99438 159.36858 151.17546 194.1875 108.1583 194.18749 C 86.877591 194.18749 67.606606 185.66316 53.561634 171.84364 C 45.987919 164.3915 39.935982 155.39822 35.907931 145.37084 C 35.879806 145.30082 35.850075 145.23166 35.822148 145.16155 C 35.820479 145.15739 35.818638 145.15331 35.816981 145.14914 C 35.610831 144.63132 35.412304 144.10969 35.217017 143.58645 C 35.188687 143.51054 35.158301 143.43561 35.130201 143.35959 C 35.129309 143.35719 35.128505 143.35476 35.127617 143.35235 C 32.324852 135.76771 30.674904 127.62391 30.377003 119.13316 C 30.368095 118.87928 30.354538 118.62646 30.348064 118.37197 C 30.330982 117.70049 30.322226 117.02705 30.322226 116.35142 C 30.322223 73.334254 65.141151 38.515862 108.1583 38.515859 z " /><path
       id="circle1687"
       style="color:#000000;fill:#3e94e1;fill-opacity:1;stroke-linecap:round;stroke-linejoin:round"
       d="M 108.1583 42.202456 C 67.218943 42.202457 34.009857 75.411533 34.009856 116.3509 C 34.009856 117.5233 34.040714 118.68823 34.094605 119.84733 C 34.099095 119.95906 34.101845 120.07126 34.107524 120.18271 C 34.118817 120.40426 34.136146 120.62417 34.149382 120.8452 C 34.174464 121.26421 34.197979 121.68383 34.229997 122.10094 C 34.253289 122.40424 34.284195 122.70559 34.311129 123.00786 C 34.338846 123.33277 34.365367 123.658 34.398463 123.98144 C 34.420596 124.19769 34.44837 124.41222 34.47236 124.62792 C 34.517823 125.03682 34.561863 125.44629 34.613953 125.85316 C 34.643565 126.08437 34.679366 126.31354 34.711105 126.54408 C 34.764819 126.93438 34.817218 127.32517 34.876986 127.71352 C 34.912093 127.94153 34.95246 128.1678 34.989641 128.39513 C 35.053068 128.78307 35.115033 129.17143 35.184461 129.55733 C 35.224605 129.78038 35.269966 130.0016 35.312102 130.22396 C 35.370357 130.53137 35.42995 130.83836 35.490902 131.14483 C 35.507319 131.22738 35.521984 131.31054 35.538961 131.39288 C 35.580236 131.59297 35.626301 131.79127 35.669186 131.99077 C 35.756868 132.39883 35.84405 132.80688 35.93842 133.2124 C 35.983152 133.40456 36.03224 133.59495 36.078463 133.78653 C 36.176743 134.194 36.274755 134.60179 36.379737 135.00661 C 36.426808 135.18805 36.478089 135.3678 36.526498 135.5487 C 36.584117 135.76401 36.64451 135.97821 36.703231 136.1931 C 36.758995 136.39713 36.812994 136.60191 36.87118 136.80495 C 36.963547 137.12716 37.062412 137.44625 37.159018 137.76665 C 37.237677 138.03104 37.314816 138.29608 37.397246 138.55885 C 37.44469 138.71003 37.495622 138.85974 37.544007 139.0105 C 37.685456 139.4514 37.828134 139.8915 37.977572 140.32877 C 38.081116 140.63164 38.19114 140.93149 38.298483 141.23259 C 38.395489 141.50695 38.490691 141.78218 38.591488 142.05476 C 38.628861 142.15579 38.66841 142.25573 38.70621 142.35655 C 38.883221 142.82883 39.063015 143.29966 39.249329 143.76732 C 39.284709 143.85609 39.322138 143.94381 39.35785 144.03242 C 39.550473 144.51049 39.746271 144.98715 39.948511 145.46024 C 39.98026 145.53448 40.01368 145.60781 40.045663 145.68193 C 40.254953 146.16708 40.467679 146.65017 40.686968 147.1299 C 40.71759 147.19687 40.749687 147.26303 40.780502 147.32989 C 41.004373 147.8158 41.232242 148.29975 41.466248 148.77993 C 41.563387 148.97919 41.665554 149.17543 41.764421 149.37369 C 41.937504 149.72171 42.109708 150.07021 42.28842 150.41497 C 42.413737 150.65665 42.545003 150.89471 42.672893 151.13483 C 42.828211 151.42696 42.981263 151.72048 43.140565 152.01022 C 43.161981 152.04917 43.184193 152.0876 43.205677 152.1265 C 43.477105 152.61809 43.753417 153.10682 44.0356 153.59152 C 44.053132 153.62163 44.071254 153.65136 44.088827 153.68144 C 44.194136 153.86169 44.304038 154.03898 44.410771 154.21836 C 44.594186 154.52658 44.775841 154.83597 44.963709 155.1413 C 44.983106 155.17282 45.003177 155.20386 45.02262 155.23535 C 45.320797 155.71834 45.623777 156.19795 45.932642 156.67351 C 46.095878 156.92478 46.264619 157.1721 46.430803 157.42126 C 46.599526 157.67466 46.765829 157.92982 46.937749 158.18091 C 46.948794 158.19703 46.960281 158.21285 46.971339 158.22897 C 47.301874 158.71089 47.637497 159.18884 47.979029 159.66247 C 48.171525 159.92937 48.370132 160.19148 48.566073 160.4557 C 48.728377 160.67466 48.887684 160.89596 49.052348 161.11303 C 50.727511 163.3209 52.52706 165.42878 54.433932 167.43357 C 54.591745 167.5996 54.746846 167.76822 54.906255 167.93277 C 55.327181 168.36723 55.753381 168.79644 56.18473 169.22054 C 69.567301 182.37846 87.916301 190.5009 108.1583 190.5009 C 149.09767 190.5009 182.30675 157.29026 182.30675 116.3509 C 182.30675 96.10916 174.18454 77.760375 161.02743 64.377847 C 157.66199 60.954759 153.9674 57.856586 149.99451 55.135 C 149.65385 54.901639 149.30841 54.67482 148.96356 54.447187 C 148.82008 54.352466 148.67879 54.2547 148.53465 54.160899 C 147.51042 53.494234 146.46863 52.852037 145.41029 52.235435 C 144.90183 51.939201 144.38948 51.64908 143.87343 51.364687 C 143.8608 51.357723 143.84835 51.350457 143.83571 51.3435 C 143.50772 51.162998 143.17574 50.988777 142.84456 50.8133 C 142.63402 50.701563 142.42533 50.586648 142.21359 50.476886 C 141.9138 50.321486 141.61053 50.172121 141.30822 50.0211 C 141.06423 49.898837 140.82199 49.773838 140.57648 49.654198 C 140.10373 49.423823 139.62748 49.199336 139.14917 48.978787 C 139.07784 48.945892 139.00721 48.911726 138.93575 48.879051 C 138.45656 48.659947 137.97392 48.447389 137.48933 48.238263 C 136.85536 47.964675 136.21768 47.698181 135.57472 47.441929 C 135.1071 47.255566 134.63618 47.07587 134.16395 46.89881 C 134.06313 46.861009 133.96319 46.821462 133.86216 46.784089 C 133.58961 46.683263 133.31437 46.588077 133.03999 46.491083 C 132.84099 46.420726 132.64319 46.347881 132.44364 46.278693 C 132.34105 46.243111 132.23947 46.205316 132.13668 46.170172 C 131.64552 46.00225 131.15138 45.841214 130.65564 45.683381 C 129.98576 45.470106 129.31255 45.264054 128.63457 45.069464 C 128.16027 44.933335 127.68282 44.804617 127.20468 44.677757 C 127.08146 44.645064 126.95919 44.610095 126.83571 44.578022 C 126.4019 44.465332 125.96517 44.36003 125.5283 44.255044 C 125.3589 44.214334 125.19069 44.170564 125.02084 44.13102 C 124.8814 44.098558 124.74068 44.06955 124.60071 44.03852 C 124.33335 43.97924 124.06623 43.919386 123.79817 43.861786 C 123.59867 43.8189 123.40037 43.772837 123.20028 43.731562 C 123.108 43.712527 123.01475 43.696274 122.92226 43.677818 C 122.41136 43.57447 121.89953 43.473453 121.38488 43.380679 C 121.16476 43.340997 120.94289 43.306576 120.72188 43.269574 C 120.32818 43.202295 119.93531 43.132693 119.53952 43.071654 C 119.11195 43.005714 118.68169 42.94783 118.25174 42.889236 C 118.05467 42.862378 117.85865 42.832375 117.66108 42.80707 C 117.24402 42.753652 116.82454 42.70831 116.40534 42.66186 C 116.20031 42.639139 115.99645 42.612622 115.79091 42.59158 C 115.31144 42.542491 114.8292 42.501768 114.34707 42.461872 C 114.2006 42.449751 114.05505 42.433865 113.90834 42.422598 C 113.89169 42.421319 113.87487 42.420763 113.85821 42.419497 C 113.28211 42.375732 112.70415 42.338974 112.12447 42.308393 C 110.81099 42.239069 109.48902 42.202456 108.1583 42.202456 z M 108.1583 44.202334 C 110.03772 44.202334 111.90037 44.274199 113.74349 44.415241 C 113.93793 44.43012 114.13085 44.450501 114.32485 44.466917 C 114.3856 44.472498 114.44644 44.477637 114.50727 44.482937 C 114.86859 44.514432 115.23063 44.543806 115.59041 44.580605 C 115.77089 44.599066 115.94982 44.622312 116.12991 44.6421 C 116.14955 44.644337 116.16916 44.646642 116.18882 44.648818 C 116.59669 44.693974 117.00467 44.738487 117.41045 44.790412 C 117.63658 44.819348 117.86091 44.853956 118.08638 44.88498 C 118.46457 44.937017 118.84335 44.987303 119.21964 45.045177 C 119.44997 45.080601 119.67837 45.121785 119.90797 45.159381 C 120.27844 45.220045 120.64944 45.279134 121.01798 45.345417 C 121.20817 45.379623 121.39675 45.418243 121.58642 45.453937 C 122.00029 45.531821 122.41429 45.609315 122.82562 45.694233 C 122.82595 45.694301 122.82633 45.694164 122.82666 45.694233 C 122.9602 45.721803 123.09233 45.753258 123.2256 45.781566 C 123.67918 45.877911 124.13224 45.975432 124.58262 46.080256 C 124.74849 46.118861 124.91277 46.161431 125.0782 46.201178 C 125.49483 46.301281 125.91138 46.401357 126.32515 46.508653 C 126.49343 46.552289 126.66017 46.599744 126.82796 46.644562 C 127.24426 46.755754 127.66059 46.867212 128.07388 46.985627 C 128.19894 47.021456 128.32273 47.060244 128.4475 47.096731 C 128.45973 47.100352 128.47195 47.103996 128.48419 47.107583 C 128.92329 47.23624 129.36171 47.366686 129.79729 47.503424 C 129.91092 47.539095 130.02342 47.577278 130.1368 47.613495 C 130.59507 47.759874 131.05252 47.908359 131.50675 48.063597 C 131.59669 48.094336 131.68568 48.12708 131.77546 48.158165 C 131.78148 48.160264 131.78753 48.162279 131.79355 48.164366 C 132.25953 48.325834 132.72413 48.490282 133.18571 48.660977 C 133.2675 48.69122 133.3485 48.722946 133.43014 48.753477 C 133.4434 48.758492 133.45666 48.76349 133.46993 48.768464 C 133.93345 48.942115 134.39542 49.118907 134.85435 49.301764 C 134.9348 49.333822 135.01433 49.367611 135.09464 49.39995 C 135.09565 49.400356 135.09673 49.400577 135.09774 49.400983 C 135.56508 49.589182 136.03058 49.780568 136.49301 49.978209 C 136.56698 50.009826 136.64033 50.04247 136.71418 50.074327 C 136.72196 50.077707 136.72965 50.0813 136.73744 50.084662 C 137.20312 50.285748 137.667 50.490091 138.12753 50.700645 C 138.18602 50.727384 138.2438 50.755404 138.3022 50.782294 C 138.78631 51.005201 139.2683 51.232214 139.74655 51.465457 C 139.78113 51.482317 139.81537 51.499702 139.84991 51.516616 C 139.85046 51.516888 139.8509 51.517379 139.85146 51.51765 C 140.34034 51.757064 140.82667 52.000868 141.30925 52.250938 C 141.36867 52.281728 141.42718 52.314039 141.4865 52.344989 C 141.94969 52.586653 142.41059 52.83209 142.86781 53.083446 C 142.91432 53.109013 142.96038 53.135293 143.00682 53.16096 C 143.4789 53.421848 143.94844 53.687243 144.41397 53.958328 C 144.44388 53.975747 144.47348 53.993577 144.50337 54.011038 C 144.98115 54.290181 145.45532 54.573966 145.92602 54.863699 C 145.94565 54.875781 145.96532 54.887771 145.98493 54.899872 C 145.99065 54.903432 145.99625 54.907186 146.00199 54.910724 C 147.97299 56.127314 149.88145 57.435941 151.7205 58.830898 C 151.73744 58.843747 151.75422 58.856792 151.77114 58.869656 C 151.77525 58.872789 151.77943 58.875831 151.78355 58.878957 C 154.56105 60.990551 157.18107 63.29864 159.62234 65.782929 C 172.41464 78.800632 180.30687 96.649679 180.30687 116.3509 C 180.30687 156.20938 148.01679 188.50102 108.1583 188.50102 C 88.456954 188.50102 70.608053 180.60787 57.590329 167.81494 C 44.854743 155.29929 36.749032 138.09249 36.06296 118.9864 C 36.053812 118.73163 36.040523 118.47806 36.034022 118.22262 C 36.018193 117.60069 36.009734 116.97667 36.009734 116.3509 C 36.009733 76.492409 68.29982 44.202333 108.1583 44.202334 z " /><path
       sodipodi:type="star"
       style="fill:#3e94e1;fill-opacity:1;stroke:none;stroke-width:2;stroke-linecap:round;stroke-linejoin:round;stroke-dasharray:none;stroke-opacity:1"
       id="path4001"
       inkscape:flatsided="false"
       sodipodi:sides="4"
       sodipodi:cx="-59.526871"
       sodipodi:cy="91.174065"
       sodipodi:r1="73.229645"
       sodipodi:r2="29.291859"
       sodipodi:arg1="1.5707963"
       sodipodi:arg2="2.3561945"
       inkscape:rounded="0"
       inkscape:randomized="0"
       d="M -59.526869,164.40371 -80.239343,111.88654 -132.75652,91.174067 -80.239342,70.461593 -59.526873,17.94442 -38.814399,70.461593 13.702774,91.174063 -38.814399,111.88654 Z"
       transform="matrix(0.28882298,0,0,0.28882298,125.35093,90.018466)" /><path
       id="rect914-5"
       style="fill:#3e94e1;fill-opacity:1;stroke-width:2;stroke-linecap:round;stroke-linejoin:round"
       d="m 30.620185,106.55972 -10.29755,10.29755 A 49.437754,49.437754 0 0 0 5.3628495,110.68115 l 3.654e-4,-14.583046 -22.3136129,3.65e-4 -7.3e-4,14.562221 a 49.437754,49.437754 0 0 0 -14.993038,6.16333 l -10.263567,-10.26357 -15.778299,15.7783 10.239086,10.23909 a 49.437754,49.437754 0 0 0 -6.209736,15.01825 l -14.490968,-3.7e-4 v 11.69451 l 19.240535,-3.7e-4 c -0.138807,-11.29414 4.095151,-22.63228 12.707048,-31.24417 0.164798,-0.1648 0.332347,-0.32516 0.499146,-0.48673 l 1.236905,1.23691 0.05262,-0.0526 6.366496,6.3665 c 12.790168,-12.20961 33.0860029,-12.03014 45.655116,0.53897 6.512389,6.51239 9.69022,15.09927 9.550657,23.64151 h 29.99923 v -11.69524 l -14.551625,3.7e-4 a 49.437754,49.437754 0 0 0 -6.205351,-14.96198 l 10.295358,-10.29536 z m -14.704365,30.4834 c -11.9978289,-11.99783 -31.420609,-11.99785 -43.418457,0 -6.135837,6.13583 -9.125784,14.21366 -8.985737,22.24711 l 3.808643,-3.7e-4 a 26.915968,26.915968 0 0 1 7.853704,-19.57013 26.915968,26.915968 0 0 1 38.064871,3.6e-4 26.915968,26.915968 0 0 1 7.852974,19.57014 l 3.809374,-3.7e-4 c 0.139974,-8.03336 -2.849599,-16.11097 -8.985372,-22.24674 z m -51.540371,-7.03081 c -7.866209,8.15868 -11.722073,18.73898 -11.585977,29.27755 l 8.762838,3.7e-4 c -0.135817,-8.30294 2.862694,-16.64799 9.011682,-23.08938 z m 73.568603,5.86224 a 49.437754,49.437754 0 0 1 0.501705,1.0162 49.437754,49.437754 0 0 0 -0.501705,-1.0162 z m -20.86112,-20.85016 a 49.437754,49.437754 0 0 0 -1.026795,-0.50499 49.437754,49.437754 0 0 1 1.026795,0.50499 z m 22.467816,24.24808 a 49.437754,49.437754 0 0 1 0.495125,1.19379 49.437754,49.437754 0 0 0 -0.495125,-1.19379 z M 13.691949,113.42756 a 49.437754,49.437754 0 0 0 -1.209864,-0.49951 49.437754,49.437754 0 0 1 1.209864,0.49951 z m 27.255384,29.49314 a 49.437754,49.437754 0 0 1 0.36906,1.08745 49.437754,49.437754 0 0 0 -0.36906,-1.08745 z M 10.042624,112.03645 a 49.437754,49.437754 0 0 0 -1.0965876,-0.37016 49.437754,49.437754 0 0 1 1.0965876,0.37016 z m 46.817476,47.25377 -29.99923,0 c -0.133703,8.18379 -3.311534,16.32663 -9.550656,22.56575 -12.5691055,12.56911 -32.864605,12.74818 -45.654752,0.53861 l -6.18927,6.18927 c 14.674778,14.14872 37.1843978,15.35235 53.193111,3.61169 -1.513265,-2.24236 -1.279566,-5.33139 0.701217,-7.31217 2.245821,-2.24582 5.91591,-2.24583 8.161738,0 2.24582,2.24582 2.246188,5.91629 3.67e-4,8.16211 -2.024156,2.02415 -5.205734,2.22351 -7.458336,0.5989 -16.997673,12.62447 -41.14846,11.23052 -56.564356,-4.18538 -8.33868,-8.33868 -12.572645,-19.23331 -12.707045,-30.16914 l -19.240541,3.7e-4 4e-6,10.61874 14.46941,0 a 49.437754,49.437754 0 0 0 6.197311,15.05187 l -10.205107,10.2051 15.778301,15.7783 10.204378,-10.20437 a 49.437754,49.437754 0 0 0 15.052599,6.19658 l -7e-6,14.4694 22.3136174,3.7e-4 -7.1e-6,-14.4906 a 49.437754,49.437754 0 0 0 15.0182547,-6.20973 l 10.239083,10.23908 15.778303,-15.7783 -10.258818,-10.25882 a 49.437754,49.437754 0 0 0 6.190002,-14.99852 l 14.530433,-3.6e-4 z m -39.549886,-23.6415 c 0.395789,0.39579 0.77872,0.79923 1.149936,1.20986 -0.371086,-0.41055 -0.754225,-0.81415 -1.149936,-1.20986 z m 0,0 c -0.392536,-0.39254 -0.792484,-0.7728 -1.199629,-1.14116 0.407013,0.36826 0.807213,0.74875 1.199629,1.14116 z m -1.202556,-1.14409 c -0.814104,-0.73638 -1.656935,-1.42441 -2.523872,-2.06419 0.867067,0.63988 1.709647,1.32767 2.523872,2.06419 z m -2.523872,-2.06419 c -0.433873,-0.32019 -0.873773,-0.62812 -1.319483,-0.92411 0.44571,0.29599 0.88561,0.60392 1.319483,0.92411 z m -1.319483,-0.92411 c -0.44571,-0.29599 -0.897216,-0.57997 -1.353838,-0.85177 0.456622,0.2718 0.908128,0.55578 1.353838,0.85177 z m -1.353838,-0.85177 c -0.456617,-0.27179 -0.9182952,-0.53145 -1.3848931,-0.77905 0.4665979,0.2476 0.9282761,0.50726 1.3848931,0.77905 z m -1.3848931,-0.77905 c -1.8663878,-0.99037 -3.8087104,-1.78729 -5.7975558,-2.39049 1.9886127,0.60318 3.9313752,1.40023 5.7975558,2.39049 z m 8.9448141,6.98477 c 0.359315,0.39784 0.706604,0.803 1.042868,1.21388 -0.336271,-0.41103 -0.683481,-0.8159 -1.042868,-1.21388 z m 1.095858,1.27783 c 0.320983,0.39424 0.629755,0.7946 0.929595,1.2 -0.299676,-0.40538 -0.608737,-0.80577 -0.929595,-1.2 z m 1.020944,1.32204 c 0.286099,0.39063 0.560719,0.78741 0.827283,1.18758 -0.266503,-0.40036 -0.541195,-0.79677 -0.827283,-1.18758 z m 0.944214,1.36224 c 0.251038,0.38219 0.491268,0.76929 0.724604,1.15944 -0.23317,-0.39021 -0.473705,-0.77718 -0.724604,-1.15944 z m 0.872962,1.40719 c 0.219194,0.37403 0.428356,0.7521 0.631426,1.13276 -0.202848,-0.38064 -0.412435,-0.75874 -0.631426,-1.13276 z m 0.788913,1.42838 c 0.190307,0.36579 0.37112,0.73517 0.546649,1.10645 -0.175348,-0.37134 -0.356516,-0.7406 -0.546649,-1.10645 z m 0.717296,1.4693 c 0.159532,0.34853 0.310492,0.69992 0.457121,1.05274 -0.146429,-0.35282 -0.297788,-0.70421 -0.457121,-1.05274 z m -5.921795,-5.80267 c 0.01652,0.0202 0.0336,0.0401 0.05006,0.0603 -0.01647,-0.0202 -0.03353,-0.0401 -0.05006,-0.0603 z m 0.923749,1.18757 c 0.02914,0.0394 0.0595,0.0782 0.08843,0.11767 -0.02895,-0.0395 -0.05927,-0.0783 -0.08843,-0.11767 z m 0.864922,1.23179 c 0.03687,0.0554 0.0746,0.11036 0.111081,0.1659 -0.03651,-0.0556 -0.07417,-0.11054 -0.111081,-0.1659 z m 4.782088,4.90487 c 0.13126,0.33028 0.255564,0.66253 0.375634,0.99609 -0.11992,-0.33367 -0.244514,-0.6657 -0.375634,-0.99609 z m -3.990983,-3.65262 c 0.04759,0.0795 0.09607,0.15873 0.142874,0.23861 -0.04686,-0.0799 -0.09523,-0.15904 -0.142874,-0.23861 z m 0.722413,1.2771 c 0.05734,0.10726 0.115397,0.21413 0.171372,0.32192 -0.05603,-0.10777 -0.113983,-0.21468 -0.171372,-0.32192 z m 3.827275,3.89159 c 0.106523,0.31244 0.206855,0.62674 0.303657,0.94166 -0.09668,-0.31511 -0.197241,-0.62903 -0.303657,-0.94166 z m -3.152004,-2.55054 c 0.05495,0.11623 0.110665,0.2322 0.164069,0.34896 -0.05348,-0.11678 -0.109048,-0.23272 -0.164069,-0.34896 z M 3.727285,127.49502 c -0.4969893,-0.15072 -0.9969527,-0.28966 -1.4992665,-0.4162 0.5025401,0.1266 1.0020552,0.2654 1.4992665,0.4162 z m 21.882064,22.25039 c 0.08362,0.2929 0.162232,0.58668 0.237517,0.88137 -0.07514,-0.2947 -0.154047,-0.58846 -0.237517,-0.88137 z m -3.051518,-2.78915 c 0.06061,0.14588 0.121523,0.29188 0.179785,0.43849 -0.05837,-0.14668 -0.119061,-0.29255 -0.179785,-0.43849 z m 0.526921,1.35785 c 0.06344,0.17597 0.126234,0.35224 0.186356,0.52911 -0.06024,-0.17692 -0.122789,-0.35308 -0.186356,-0.52911 z m 2.928738,2.99452 c 0.06507,0.27961 0.1258,0.56024 0.183439,0.84117 -0.05754,-0.28107 -0.118465,-0.56142 -0.183439,-0.84117 z m -2.467231,-1.61364 c 0.06351,0.20649 0.12548,0.4133 0.184535,0.62083 -0.05918,-0.20754 -0.120899,-0.41433 -0.184535,-0.62083 z m -10.307416,-9.9749 a 26.915968,26.915968 0 0 1 1.890617,2.11571 26.915968,26.915968 0 0 0 -1.890617,-2.11571 z m 0,0 a 26.915968,26.915968 0 0 0 -2.181114,-1.94871 26.915968,26.915968 0 0 1 2.181114,1.94871 z m -2.940434,-2.50048 a 26.915968,26.915968 0 0 0 -1.6154651,-1.14628 26.915968,26.915968 0 0 1 1.6154651,1.14628 z m 5.584155,5.64262 a 26.915968,26.915968 0 0 1 0.89525,1.26212 26.915968,26.915968 0 0 0 -0.89525,-1.26212 z m 8.061623,8.24359 c 0.0588,0.22975 0.114686,0.45984 0.168088,0.69063 -0.05351,-0.23075 -0.10918,-0.46092 -0.168088,-0.69063 z M 7.6872053,135.49854 a 26.915968,26.915968 0 0 0 -1.5504228,-0.85688 26.915968,26.915968 0 0 1 1.5504228,0.85688 z m -9.1684392,-9.12021 c -0.8004561,-0.10587 -1.603361,-0.19124 -2.4084014,-0.23788 0.8051627,0.0466 1.6078243,0.13199 2.4084014,0.23788 z m 19.0333499,19.05966 a 26.915968,26.915968 0 0 1 0.625576,1.1313 26.915968,26.915968 0 0 0 -0.625576,-1.1313 z m 6.725687,7.11375 c 0.04868,0.23742 0.09402,0.47536 0.137032,0.71365 -0.04313,-0.23833 -0.08824,-0.47619 -0.137032,-0.71365 z m 0.146899,0.77175 c 0.08589,0.48109 0.160781,0.96378 0.22363,1.44774 -0.06304,-0.48402 -0.137514,-0.96659 -0.22363,-1.44774 z M 5.0091352,134.13959 a 26.915968,26.915968 0 0 0 -1.5584633,-0.64568 26.915968,26.915968 0 0 1 1.5584633,0.64568 z m 13.8580798,13.92604 a 26.915968,26.915968 0 0 1 0.440316,1.0637 26.915968,26.915968 0 0 0 -0.440316,-1.0637 z m 5.784405,6.73155 c 0.06358,0.49283 0.11561,0.98686 0.155297,1.48172 -0.03983,-0.49499 -0.09153,-0.98876 -0.155297,-1.48172 z m 0.155297,1.48172 c 0.04013,0.50036 0.06833,1.00183 0.08404,1.50329 -0.01578,-0.50173 -0.04377,-1.00267 -0.08404,-1.50329 z M 2.2404424,133.10073 a 26.915968,26.915968 0 0 0 -1.59135019,-0.45858 26.915968,26.915968 0 0 1 1.59135019,0.45858 z M 19.877203,150.785 a 26.915968,26.915968 0 0 1 0.283193,0.98258 26.915968,26.915968 0 0 0 -0.283193,-0.98258 z m -40.416268,-39.14465 a 49.437754,49.437754 0 0 0 -1.108647,0.37198 49.437754,49.437754 0 0 1 1.108647,-0.37198 z m 45.430023,46.14622 c 0.01563,0.50073 0.01895,1.00169 0.01023,1.50256 0.0087,-0.50087 0.0055,-1.00182 -0.01023,-1.50256 z M -0.60644801,132.3754 a 26.915968,26.915968 0 0 0 -1.61838989,-0.27515 26.915968,26.915968 0 0 1 1.61838989,0.27515 z M 20.584997,153.57562 a 26.915968,26.915968 0 0 1 0.146897,0.86382 26.915968,26.915968 0 0 0 -0.146897,-0.86382 z m 4.316193,5.71424 -3.809369,3.7e-4 a 26.915968,26.915968 0 0 1 -7.852979,18.49437 26.915968,26.915968 0 0 1 -38.064866,3.6e-4 26.915968,26.915968 0 0 1 -7.853707,-18.4951 l -3.808646,3.7e-4 c 0.133798,7.67491 3.123751,15.30935 8.985742,21.17134 11.997834,11.99783 31.4206288,11.99783 43.418456,1e-5 5.862071,-5.86207 8.851641,-13.49673 8.985369,-21.17172 z m -3.910227,-2.86809 a 26.915968,26.915968 0 0 1 0.03471,0.61572 26.915968,26.915968 0 0 0 -0.03471,-0.61572 z M -3.5158233,131.96468 a 26.915968,26.915968 0 0 0 -1.6267939,-0.0913 26.915968,26.915968 0 0 1 1.6267939,0.0913 z m -20.5695227,-19.0655 a 49.437754,49.437754 0 0 0 -1.211326,0.49805 49.437754,49.437754 0 0 1 1.211326,-0.49805 z m 17.6404163,18.97415 a 26.915968,26.915968 0 0 0 -1.6253337,0.0913 26.915968,26.915968 0 0 1 1.6253337,-0.0913 z m -3.7549283,-3.5123 c -0.783536,0.11314 -1.562178,0.26503 -2.336782,0.43886 0.774725,-0.17387 1.553123,-0.3257 2.336782,-0.43886 z m 0.8353197,3.73959 a 26.915968,26.915968 0 0 0 -1.6110787,0.27368 26.915968,26.915968 0 0 1 1.6110787,-0.27368 z m -5.2556527,-4.80768 c -0.494023,0.13796 -0.984994,0.28786 -1.473325,0.44946 0.488116,-0.16152 0.979524,-0.31156 1.473325,-0.44946 z m -13.041031,-12.80789 a 49.437754,49.437754 0 0 0 -1.041046,0.51047 49.437754,49.437754 0 0 1 1.041046,-0.51047 z m 11.530802,13.2694 c -0.487323,0.16192 -0.97213,0.33561 -1.45286,0.52107 0.480952,-0.18555 0.965315,-0.35909 1.45286,-0.52107 z m -1.45286,0.52107 c -0.487218,0.18798 -0.970406,0.38784 -1.449942,0.60001 0.479386,-0.2121 0.962868,-0.41209 1.449942,-0.60001 z m 5.34591,4.36663 a 26.915968,26.915968 0 0 0 -1.590254,0.45822 26.915968,26.915968 0 0 1 1.590254,-0.45822 z m -5.1073,-2.34775 c -0.473471,0.19215 -0.94255,0.39749 -1.407918,0.61426 0.465222,-0.2167 0.934589,-0.42216 1.407918,-0.61426 z m -1.688919,-1.4185 c -0.471884,0.20879 -0.939617,0.42989 -1.403161,0.66211 0.463486,-0.23218 0.93134,-0.45336 1.403161,-0.66211 z m 3.995736,4.61765 a 26.915968,26.915968 0 0 0 -1.563212,0.6475 26.915968,26.915968 0 0 1 1.563212,-0.6475 z m -5.444942,-3.93288 c -0.462836,0.23278 -0.921421,0.47719 -1.375025,0.73337 0.453802,-0.25629 0.911983,-0.50049 1.375025,-0.73337 z m -1.375025,0.73337 c -0.461366,0.26056 -0.917927,0.53302 -1.368817,0.81778 0.450889,-0.28476 0.907451,-0.55722 1.368817,-0.81778 z m -1.368817,0.81778 c -0.450896,0.28476 -0.896075,0.58154 -1.335568,0.8905 0.439358,-0.30886 0.884819,-0.60583 1.335568,-0.8905 z m 5.504131,3.52874 a 26.915968,26.915968 0 0 0 -1.554079,0.85835 26.915968,26.915968 0 0 1 1.554079,-0.85835 z m -2.547983,1.43276 a 26.915968,26.915968 0 0 0 -1.593542,1.13021 26.915968,26.915968 0 0 1 1.593542,-1.13021 z m -4.292077,-4.07064 c -0.439348,0.30887 -0.872742,0.62981 -1.299754,0.96285 0.427017,-0.33304 0.860401,-0.65398 1.299754,-0.96285 z m -1.300121,0.96322 c -0.417668,0.32577 -0.828989,0.66364 -1.233979,1.01254 0.404967,-0.34887 0.816337,-0.6868 1.233979,-1.01254 z m 51.970816,53.3316 c -1.48153,-1.48153 -3.85195,-1.48153 -5.33348,0 -1.48153,1.48153 -1.481905,3.85232 -3.75e-4,5.33385 1.481523,1.48153 3.852332,1.48117 5.333862,-3.6e-4 1.48153,-1.48153 1.481516,-3.85197 -7e-6,-5.33349 z m -48.757055,-48.52394 a 26.915968,26.915968 0 0 0 -2.177102,1.94617 26.915968,26.915968 0 0 1 2.177102,-1.94617 z m -2.177102,1.94617 a 26.915968,26.915968 0 0 0 -1.887326,2.11169 26.915968,26.915968 0 0 1 1.887326,-2.11169 z m -2.326187,-5.69305 c -0.404065,0.34968 -0.802177,0.71028 -1.192687,1.08307 0.390662,-0.37293 0.788456,-0.73326 1.192687,-1.08307 z m -8.472337,-4.01437 c -0.24574,0.25488 -0.487767,0.51221 -0.7257,0.77174 0.23799,-0.25961 0.479883,-0.51678 0.7257,-0.77174 z m -0.7257,0.77174 c -0.235747,0.25715 -0.467649,0.51674 -0.695733,0.77832 0.228077,-0.26161 0.459969,-0.52113 0.695733,-0.77832 z m 6.914242,5.4168 c -0.36846,0.38599 -0.725167,0.77921 -1.071009,1.17844 0.345903,-0.39924 0.702542,-0.79245 1.071009,-1.17844 z m 0.877709,1.95274 c -0.01525,0.0168 -0.0312,0.0332 -0.04641,0.0501 0.01521,-0.0169 0.03116,-0.0332 0.04641,-0.0501 z m -1.977947,-0.74141 c -0.33431,0.38696 -0.656334,0.78057 -0.969429,1.17917 0.313117,-0.39849 0.635156,-0.79231 0.969429,-1.17917 z m 0.984041,1.89464 c -0.02763,0.0337 -0.05622,0.0667 -0.08368,0.10049 0.02746,-0.0337 0.05606,-0.0668 0.08368,-0.10049 z m -7.642132,-7.57052 c -0.177505,0.20583 -0.353766,0.41238 -0.526552,0.62083 0.172719,-0.20841 0.349104,-0.41503 0.526552,-0.62083 z m -1.596472,-1.21717 c -0.09714,0.11332 -0.190697,0.22868 -0.286477,0.34275 0.09577,-0.11405 0.189357,-0.22946 0.286477,-0.34275 z m 7.222649,8.15005 c -0.298594,0.38253 -0.586145,0.77098 -0.865287,1.16346 0.27926,-0.39245 0.566616,-0.78096 0.865287,-1.16346 z m 4.092928,4.19963 a 26.915968,26.915968 0 0 0 -0.891959,1.2581 26.915968,26.915968 0 0 1 0.891959,-1.2581 z m -10.384881,-10.3403 c -0.174715,0.21306 -0.348685,0.42633 -0.518512,0.64202 0.169785,-0.2157 0.343828,-0.42894 0.518512,-0.64202 z m -1.643234,-1.15652 c -0.08998,0.11054 -0.176565,0.22277 -0.265288,0.33398 0.0887,-0.11118 0.175325,-0.22347 0.265288,-0.33398 z m 9.005469,9.14798 c -0.0298,0.0402 -0.06068,0.0799 -0.09026,0.12022 0.02955,-0.0403 0.06049,-0.08 0.09026,-0.12022 z m -7.981238,-7.21826 c -0.177679,0.22752 -0.353924,0.45591 -0.526185,0.68624 0.172252,-0.23041 0.348507,-0.45864 0.526185,-0.68624 z m -1.71595,-1.05749 c -0.08935,0.11571 -0.17544,0.2333 -0.263463,0.3497 0.08805,-0.11643 0.174087,-0.23397 0.263463,-0.3497 z m 7.661499,7.72727 c -0.265351,0.37729 -0.520239,0.75981 -0.767722,1.14556 0.247623,-0.38571 0.50226,-0.76831 0.767722,-1.14556 z m 1.184286,1.76017 c -0.04465,0.0668 -0.0904,0.13313 -0.134471,0.20025 0.04404,-0.0671 0.08985,-0.13341 0.134471,-0.20025 z m -7.786835,-7.5654 c -0.160561,0.21709 -0.319979,0.43461 -0.475763,0.65409 0.155643,-0.21938 0.315335,-0.43709 0.475763,-0.65409 z m -1.715585,-1.04835 c -0.08293,0.11318 -0.162757,0.22784 -0.244461,0.34166 0.0817,-0.1138 0.16152,-0.22848 0.244461,-0.34166 z m 11.713866,12.31606 a 26.915968,26.915968 0 0 0 -0.627769,1.13569 26.915968,26.915968 0 0 1 0.627769,-1.13569 z m -10.587317,-10.44992 c -0.1621,0.23072 -0.322942,0.46213 -0.479783,0.69537 0.156781,-0.23328 0.317739,-0.46462 0.479783,-0.69537 z m 6.30072,6.32411 c -0.232752,0.36844 -0.456141,0.7408 -0.672717,1.11632 0.216714,-0.37543 0.439849,-0.74795 0.672717,-1.11632 z m 1.273815,1.69037 c -0.04993,0.0833 -0.100747,0.16624 -0.149818,0.24994 0.04903,-0.0837 0.09992,-0.1666 0.149818,-0.24994 z m -9.352606,-8.96674 c -0.05788,0.0834 -0.11343,0.16801 -0.170646,0.25177 0.05722,-0.0837 0.112771,-0.16834 0.170646,-0.25177 z m 1.25444,1.71413 c -0.175835,0.26259 -0.348966,0.52656 -0.518148,0.79221 0.169136,-0.26574 0.342352,-0.52954 0.518148,-0.79221 z m 6.003285,6.93507 c -0.201626,0.3571 -0.394248,0.71762 -0.581362,1.08051 0.18723,-0.36275 0.379633,-0.72354 0.581362,-1.08051 z m -7.863207,-7.75212 c -0.07464,0.1136 -0.146877,0.22824 -0.220342,0.34239 0.0735,-0.11418 0.145668,-0.22876 0.220342,-0.34239 z m 9.232749,9.35115 c -0.05841,0.10911 -0.117666,0.21774 -0.174659,0.3274 0.05691,-0.10962 0.116336,-0.21834 0.174659,-0.3274 z m -7.927877,-7.68307 c -0.172323,0.27159 -0.341078,0.5446 -0.506455,0.81925 0.165257,-0.27464 0.334241,-0.54767 0.506455,-0.81925 z m -0.506455,0.81925 c -0.175461,0.29138 -0.346845,0.58448 -0.514494,0.87917 0.167544,-0.29474 0.339118,-0.58773 0.514494,-0.87917 z m -0.514494,0.87917 c -1.335808,2.34802 -2.42032,4.79922 -3.260171,7.314 0.838696,-2.515 1.92529,-4.96578 3.260171,-7.314 z m 11.371483,9.76588 a 26.915968,26.915968 0 0 0 -0.442878,1.06919 26.915968,26.915968 0 0 1 0.442878,-1.06919 z m -12.239327,-12.21886 c -0.07173,0.11538 -0.140662,0.23195 -0.21121,0.34787 0.07055,-0.11589 0.139485,-0.23251 0.21121,-0.34787 z m 7.694753,8.25236 c -0.171684,0.34264 -0.335895,0.68831 -0.494766,1.03557 0.159072,-0.34729 0.322881,-0.69291 0.494766,-1.03557 z m 1.454322,1.5084 c -0.06158,0.12984 -0.123422,0.25939 -0.183074,0.3899 0.0596,-0.13056 0.121551,-0.26002 0.183074,-0.3899 z m -9.718013,-8.81911 c -0.05243,0.0894 -0.102831,0.17966 -0.154573,0.26931 0.05175,-0.0897 0.102122,-0.17994 0.154573,-0.26931 z m 9.123494,10.15614 c -0.06486,0.15563 -0.12929,0.31125 -0.191473,0.46772 0.0621,-0.15647 0.126699,-0.31207 0.191473,-0.46772 z m -1.533982,-1.41413 c -0.147446,0.33405 -0.287808,0.67032 -0.423506,1.00816 0.135857,-0.33776 0.275913,-0.67418 0.423506,-1.00816 z m -8.13507,-7.78427 c -0.04187,0.0757 -0.08212,0.15207 -0.123505,0.22801 0.04139,-0.0759 0.08163,-0.15228 0.123505,-0.22801 z m 12.342011,13.04285 a 26.915968,26.915968 0 0 0 -0.282832,0.98149 26.915968,26.915968 0 0 1 0.282832,-0.98149 z m -3.20828,-2.46504 c -0.06196,0.17167 -0.123178,0.34343 -0.181972,0.51596 0.05868,-0.17249 0.120123,-0.34432 0.181972,-0.51596 z m -9.640912,-9.63214 c -0.0432,0.0829 -0.08491,0.16641 -0.127534,0.24958 0.04264,-0.0832 0.08434,-0.16665 0.127534,-0.24958 z m 8.039694,8.29841 c -0.123216,0.32053 -0.240238,0.64335 -0.352986,0.96687 0.11296,-0.32364 0.229552,-0.64623 0.352986,-0.96687 z m -8.527514,-7.33337 c -0.03864,0.079 -0.07589,0.15837 -0.114012,0.23752 0.03813,-0.0791 0.07537,-0.15856 0.114012,-0.23752 z m 9.665759,10.05236 c -0.06161,0.20018 -0.121268,0.40068 -0.178681,0.60183 0.05731,-0.20114 0.117181,-0.40165 0.178681,-0.60183 z m -1.672107,-1.22192 c -0.09871,0.29976 -0.192276,0.60059 -0.282091,0.90256 0.08992,-0.30179 0.183273,-0.60296 0.282091,-0.90256 z M -49.584947,135.819 a 49.437754,49.437754 0 0 0 -0.519242,1.05201 49.437754,49.437754 0 0 1 0.519242,-1.05201 z m 17.410939,17.761 a 26.915968,26.915968 0 0 0 -0.143971,0.84775 26.915968,26.915968 0 0 1 0.143971,-0.84775 z m -13.09511,-12.94164 c -0.03075,0.0671 -0.05986,0.13484 -0.09026,0.20208 0.0304,-0.0672 0.0595,-0.13497 0.09026,-0.20208 z m 9.733359,10.4861 c -0.05508,0.21534 -0.107883,0.43088 -0.158218,0.64714 0.0502,-0.21615 0.103278,-0.4319 0.158218,-0.64714 z m -1.733857,-1.11778 c -0.07684,0.2784 -0.149537,0.55791 -0.218878,0.83788 0.06951,-0.28009 0.141864,-0.55936 0.218878,-0.83788 z m -8.429219,-8.39853 c -0.03369,0.0786 -0.06582,0.15768 -0.09903,0.23642 0.03321,-0.0787 0.06533,-0.15786 0.09903,-0.23642 z m 9.834578,10.94177 c -0.04954,0.24099 -0.09589,0.48234 -0.139589,0.72424 0.0436,-0.24188 0.09017,-0.48327 0.139589,-0.72424 z m -10.247127,-9.94603 c -0.0303,0.0758 -0.05931,0.15205 -0.08915,0.22801 0.02985,-0.076 0.05886,-0.15219 0.08915,-0.22801 z m 13.532143,13.82227 a 26.915968,26.915968 0 0 0 -0.03398,0.59817 26.915968,26.915968 0 0 1 0.03398,-0.59817 z m -3.430453,-3.11692 c -0.08767,0.48856 -0.163411,0.97888 -0.227281,1.4704 0.0637,-0.49156 0.139802,-0.9818 0.227281,-1.4704 z m -0.227281,1.4704 c -0.06482,0.49885 -0.116829,0.9987 -0.157122,1.49962 0.04017,-0.50084 0.09248,-1.00086 0.157122,-1.49962 z m -0.157122,1.49962 c -0.04027,0.50055 -0.06827,1.00165 -0.08405,1.5033 0.01571,-0.50147 0.04391,-1.00293 0.08405,-1.5033 z M -46.49433,143.59853 c -0.02773,0.0747 -0.05455,0.14955 -0.08185,0.22436 0.0273,-0.0748 0.05411,-0.14968 0.08185,-0.22436 z m -4.704986,-4.36005 a 49.437754,49.437754 0 0 0 -0.499511,1.20768 49.437754,49.437754 0 0 1 0.499511,-1.20768 z m 4.33958,5.38319 c -0.01977,0.0577 -0.03894,0.11546 -0.05847,0.17321 0.01953,-0.0577 0.03869,-0.11554 0.05847,-0.17321 z m 1.392204,2.20267 c -0.06945,0.2315 -0.138222,0.46294 -0.203532,0.69538 0.06518,-0.23236 0.134212,-0.46395 0.203532,-0.69538 z m -1.726921,-1.18537 c -0.01706,0.0541 -0.03321,0.10845 -0.05006,0.1626 0.01685,-0.0541 0.03299,-0.10851 0.05006,-0.1626 z m -0.310226,1.02715 c -0.01309,0.0454 -0.02544,0.0909 -0.03837,0.1363 0.01294,-0.0454 0.02528,-0.0909 0.03837,-0.1363 z m 11.026534,11.12082 c -0.01568,0.50082 -0.01895,1.00159 -0.01023,1.50256 -0.0087,-0.50088 -0.0054,-1.00183 0.01023,-1.50256 z m -9.496209,-9.11546 c -0.06637,0.26532 -0.131527,0.53062 -0.192571,0.79696 0.06089,-0.26615 0.126369,-0.53182 0.192571,-0.79696 z m -1.813519,-0.97527 c -0.01135,0.0433 -0.0224,0.0867 -0.03361,0.13008 0.01122,-0.0434 0.02226,-0.0867 0.03361,-0.13008 z m -4.805837,-4.80438 a 49.437754,49.437754 0 0 0 -0.374182,1.10646 49.437754,49.437754 0 0 1 0.374182,-1.10646 z m 4.54932,5.83337 c -0.01051,0.0445 -0.02032,0.0892 -0.03069,0.13374 0.01037,-0.0446 0.02019,-0.0892 0.03069,-0.13374 z m 1.645429,1.82886 c -0.05778,0.28724 -0.113151,0.57456 -0.164798,0.86273 0.05153,-0.28808 0.107154,-0.57558 0.164798,-0.86273 z m 7.951271,8.73616 -8.762834,-3.6e-4 c 0.131462,10.18011 3.98733,20.32135 11.585968,28.20252 l 6.18891,-6.18891 c -5.883402,-6.16316 -8.882089,-14.06894 -9.012044,-22.01325 z m -8.762834,-3.6e-4 c -0.02127,-1.64665 0.05501,-3.29444 0.228742,-4.93373 -0.174201,1.63971 -0.250014,3.28666 -0.228742,4.93373 z m 0.228742,-4.93373 c 0.06735,-0.63555 0.14997,-1.26947 0.246652,-1.90195 -0.09687,0.63241 -0.179144,1.26648 -0.246652,1.90195 z m -1.294642,-4.59135 c -0.0085,0.0405 -0.0168,0.0811 -0.02521,0.12168 0.0084,-0.0406 0.01668,-0.0811 0.02521,-0.12168 z m -0.20901,1.05968 c -0.0048,0.0259 -0.0095,0.0519 -0.01425,0.0778 0.0047,-0.0259 0.0095,-0.0519 0.01425,-0.0778 z m -0.180511,1.05018 c -0.0034,0.0211 -0.0065,0.0421 -0.0099,0.0632 0.0033,-0.0211 0.0065,-0.0421 0.0099,-0.0632 z m -0.281729,2.08977 c -0.0031,0.0282 -0.0057,0.0565 -0.0088,0.0848 0.0031,-0.0282 0.0057,-0.0565 0.0088,-0.0848 z m -0.180144,2.1073 c -0.0019,0.0305 -0.004,0.0609 -0.0058,0.0914 0.0018,-0.0305 0.004,-0.0609 0.0058,-0.0914 z"
       transform="rotate(-45)" /></g></svg>
