
<?xml version="1.0" encoding="UTF-8"?>
<svg id="_레이어_2" data-name="레이어 2" xmlns="http://www.w3.org/2000/svg" viewBox="0 0 217.68 244.31">
  <defs>
    <style>
      .cls-1 {
        fill: #9088ff;
      }
    </style>
  </defs>
  <g id="_레이어_2-2" data-name=" 레이어 2">
    <path class="cls-1" d="M142.99,173.81c-2.61-18.18-6.03-36.2-9.6-54.18-2.65-12.39-5.21-24.83-7.95-37.22,30.58-8.16,61.34-15.7,92.24-22.59-.01,0-.03,0-.04,0-40.6-.02-75.21,7.09-88.65,10.26-2,.5-4,.99-5.99,1.5-4.61-19.92-9.89-39.69-16.95-58.98-1.8-4.02-3.25-8.2-7.1-11.12-4.39-3.08-9.38-1.04-12.02,3.21-4.45,7.12-6.88,14.59-9.85,22.22-7.3,20.9-14.08,41.92-20.55,63.03-12.56,3.74-25.08,7.61-37.56,11.63-5.21,1.89-10.56,3.44-15.53,6.19-.33.22-.67.41-1.39,1.06-.37.57-.97.43-1.89,3.27-.32,1.93-.05,2.26.02,2.91.27,1.56,1.38,3.03,2.11,3.97,2.33,2.74,4.94,4.77,7.61,6.99,9.63,7.62,19.68,14.63,29.78,21.49-8.42,29.81-18.9,66.92-27.09,96.86l13-4.3c8.21-28.47,16.28-57.02,24.58-85.51,24.61,16.26,49.31,32.2,75,46.77,3.04,1.62,5.5,3.07,8.9,4.46.67.26,2.02.74,3.15.81,4.35.43,7.43-3.36,7.76-7.11.7-8.73-.95-17.25-1.95-25.61h-.02ZM89.05,31.33c1.77-4.5,3.38-9.11,5.33-13.42,6.67,18.51,11.73,37.62,16.17,56.9-13.24,3.48-26.44,7.13-39.6,10.92,5.76-18.22,11.77-36.38,18.1-54.4ZM43.25,134.95h0c-6.32-4.29-12.59-8.62-18.7-13.07-2.84-2.14-5.77-4.24-8.53-6.51,11.88-4.71,24.26-8.32,36.52-12.14-3.16,10.56-6.26,21.13-9.29,31.72ZM131.96,190.34c-26.58-14.68-52.2-31.36-77.64-47.96-.16-.11-.34-.23-.5-.34,4.24-14.41,8.56-28.79,13.01-43.14,15.36-4.53,30.76-8.91,46.2-13.13,2.67,12.14,5.16,24.3,7.73,36.4,4.3,22.51,8.98,45.38,11.21,68.15h0Z"/>
  </g>
</svg>
