<?xml version="1.0" encoding="UTF-8" standalone="no"?>
<!-- Created with Inkscape (http://www.inkscape.org/) -->

<svg
   width="153.02107mm"
   height="153.02107mm"
   viewBox="0 0 153.02107 153.02107"
   version="1.1"
   id="svg5"
   xml:space="preserve"
   inkscape:version="1.2 (dc2aedaf03, 2022-05-15)"
   sodipodi:docname="4cuts_icon.svg"
   xmlns:inkscape="http://www.inkscape.org/namespaces/inkscape"
   xmlns:sodipodi="http://sodipodi.sourceforge.net/DTD/sodipodi-0.dtd"
   xmlns="http://www.w3.org/2000/svg"
   xmlns:svg="http://www.w3.org/2000/svg"><sodipodi:namedview
     id="namedview7"
     pagecolor="#ffffff"
     bordercolor="#111111"
     borderopacity="1"
     inkscape:showpageshadow="0"
     inkscape:pageopacity="0"
     inkscape:pagecheckerboard="1"
     inkscape:deskcolor="#d1d1d1"
     inkscape:document-units="mm"
     showgrid="false"
     inkscape:zoom="1.4368528"
     inkscape:cx="218.53317"
     inkscape:cy="289.86964"
     inkscape:window-width="1920"
     inkscape:window-height="1017"
     inkscape:window-x="-8"
     inkscape:window-y="-8"
     inkscape:window-maximized="1"
     inkscape:current-layer="layer1" /><defs
     id="defs2" /><g
     inkscape:label="Layer 1"
     inkscape:groupmode="layer"
     id="layer1"
     transform="translate(-35.125294,-71.641685)"><path
       id="path948"
       style="fill:#333333;fill-opacity:1;stroke-width:2.70504;stroke-linejoin:round;paint-order:markers stroke fill"
       d="M 112.48801 72.010138 A 71.292813 71.292813 0 0 0 41.194691 143.30243 A 71.292813 71.292813 0 0 0 68.633843 199.48194 C 68.109645 203.56612 67.041623 207.92717 64.96895 211.53651 C 59.29409 221.41867 51.783192 221.88936 51.783192 221.88936 C 51.783192 221.88936 89.60971 231.50128 101.37758 213.70795 A 71.292813 71.292813 0 0 0 112.48801 214.59575 A 71.292813 71.292813 0 0 0 183.7803 143.30243 A 71.292813 71.292813 0 0 0 112.48801 72.010138 z M 103.19246 102.3933 L 120.68596 102.3933 L 120.68596 133.32888 L 120.68803 133.32888 L 150.46141 186.54578 L 73.417014 186.54578 L 103.19091 133.32888 L 103.19246 133.32888 L 103.19246 102.3933 z " /><path
       id="rect1710"
       style="fill:#333333;stroke-width:1.83936;stroke-linejoin:round;paint-order:markers stroke fill"
       d="m 101.31233,151.02965 h 21.20132 l 15.63211,29.2784 H 85.680228 Z"
       sodipodi:nodetypes="ccccc" /></g></svg>
