<?xml version="1.0" encoding="UTF-8" standalone="no"?>
<!-- Created with Inkscape (http://www.inkscape.org/) -->

<svg
   width="153.02107mm"
   height="153.02107mm"
   viewBox="0 0 153.02107 153.02107"
   version="1.1"
   id="svg5"
   xml:space="preserve"
   inkscape:version="1.2 (dc2aedaf03, 2022-05-15)"
   sodipodi:docname="showcase_icon.svg"
   xmlns:inkscape="http://www.inkscape.org/namespaces/inkscape"
   xmlns:sodipodi="http://sodipodi.sourceforge.net/DTD/sodipodi-0.dtd"
   xmlns="http://www.w3.org/2000/svg"
   xmlns:svg="http://www.w3.org/2000/svg"><sodipodi:namedview
     id="namedview7"
     pagecolor="#ffffff"
     bordercolor="#111111"
     borderopacity="1"
     inkscape:showpageshadow="0"
     inkscape:pageopacity="0"
     inkscape:pagecheckerboard="1"
     inkscape:deskcolor="#d1d1d1"
     inkscape:document-units="mm"
     showgrid="false"
     inkscape:zoom="1.4368528"
     inkscape:cx="289.17368"
     inkscape:cy="289.17368"
     inkscape:window-width="1920"
     inkscape:window-height="1017"
     inkscape:window-x="-8"
     inkscape:window-y="-8"
     inkscape:window-maximized="1"
     inkscape:current-layer="layer1" /><defs
     id="defs2" /><g
     inkscape:label="Layer 1"
     inkscape:groupmode="layer"
     id="layer1"
     transform="translate(-35.125294,-71.641685)"><path
       id="rect3343"
       style="fill:#3e94e1;fill-opacity:1;stroke:none;stroke-width:24.0262;stroke-linejoin:round;stroke-opacity:1;paint-order:markers stroke fill"
       d="m 71.82593,80.03824 v 7.242118 H 64.916247 57.34183 v 7.241997 h -7.242118 v 7.242125 H 42.85758 v 7.57456 6.90955 h -7.241983 v 7.57455 7.24212 7.24199 7.24212 h 7.241983 v 7.24212 7.242 7.24211 h 7.242132 v 7.24212 7.24198 h 7.242118 v 7.24214 h 7.241982 v 7.24211 h 7.242118 v 7.24199 h 7.242132 v 7.24212 h 7.574405 6.909696 v 7.23501 h 7.574547 7.24199 7.24212 7.24213 7.24197 v -7.23501 h 7.24213 7.24212 v -7.24212 h 7.24199 v -7.24199 h 7.24211 v -7.24211 h 7.24214 v -7.24214 h 7.24199 v -7.5744 -6.9097 h 7.24211 v -7.57455 -7.24199 -6.90969 h 7.24211 v -7.57456 -7.24197 -7.24213 -7.24212 h -7.24211 v -7.24199 -7.24212 h -7.24211 v -7.242125 h -7.24199 v -7.241997 h -7.24214 -7.24211 V 80.03824 h -7.24199 -7.24212 -7.57455 v 7.242118 h -6.90955 -7.57456 v 7.241997 h -6.90969 v -7.241997 h -7.24199 -7.242112 V 80.03824 h -7.242131 -7.241982 z m 0.332572,7.574559 h 7.242119 7.241982 6.909697 v 7.241986 h 7.57455 6.90956 v 7.242115 h 7.57455 v -7.242115 h 7.24212 7.24198 v -7.241986 h 7.24214 7.24211 6.90956 v 7.241986 h 7.57454 6.9097 v 7.242115 h 7.24198 v 7.24214 7.24198 h 7.24213 v 7.24212 7.24212 7.24199 6.9097 h -7.24213 v 7.57454 7.242 6.90968 h -7.24198 v 7.57455 6.90956 h -7.24212 v 7.24212 h -7.24212 v 7.24213 h -7.24199 v 7.24198 h -6.90968 -7.57456 v 7.24212 h -6.90956 -7.24212 -7.24213 -7.24198 -7.242116 v -7.24212 h -7.242131 -7.241982 v -7.24198 h -7.242119 v -7.24213 h -7.242119 v -7.24212 h -7.241994 v -7.24198 -7.24213 H 50.43227 v -7.24212 -7.24199 -7.24211 h -7.242118 v -7.24214 -7.24197 -7.24213 -6.90969 h 7.242118 v -7.57442 -6.9097 h 7.242119 v -7.242115 h 7.241994 7.242119 z" /></g></svg>
